<svg id="Layer_1" data-name="Layer 1" xmlns="http://www.w3.org/2000/svg" viewBox="0 0 155 71"><defs><style>.cls-1,.cls-2{fill:#f85804;}.cls-2{fill-rule:evenodd;}</style></defs><title>for hood w</title><path class="cls-1" d="M147.6768,44.71a.7782.7782,0,0,0-1.4639-.5288A29.0619,29.0619,0,0,1,132.1964,60.09a.778.778,0,0,0,.7152,1.382A30.6135,30.6135,0,0,0,147.6768,44.71Z"/><path class="cls-2" d="M148.44,16.45A35.0551,35.0551,0,0,0,97.1349,8.0258,35.0792,35.0792,0,0,0,55.7237,6.3587a35.0192,35.0192,0,1,0,0,58.1021,35.0708,35.0708,0,0,0,36.0351,1.8644,35.5773,35.5773,0,0,0,5.3761-3.5315A35.0317,35.0317,0,0,0,148.44,16.45ZM36.1524,68.87a33.46,33.46,0,1,1,30.6-47.0537A31.3843,31.3843,0,0,1,68.0445,25.22a30.94,30.94,0,0,1,.8187,3.0185c.148.7005.2861,1.4107.3946,2.1209.1085.73.1973,1.46.2466,2.2.0888.9174.1282,1.8546.1282,2.7917V35.41c0,.8286-.0295,1.6572-.0888,2.476A33.4264,33.4264,0,0,1,36.1524,68.87Zm54.8665-3.926a33.4948,33.4948,0,0,1-33.9339-1.45A35.1324,35.1324,0,0,0,68.9125,47.8687L69.465,46.29c.01-.03.02-.0494.0295-.0789a34.66,34.66,0,0,0,1.5488-7.5464c.0986-1.0752.1479-2.17.1479-3.2553l-.01-.8188v-.0592l-.0691-1.5783c0-.0493-.01-.1085-.01-.1578-.0493-.6313-.1085-1.2528-.1973-1.8743-.069-.5721-.1578-1.1443-.2564-1.7065-.148-.8484-.3354-1.6967-.5524-2.5254-.2664-1.0456-.582-2.0715-.9371-3.0678l-.6116-1.5882c-.148-.3551-.296-.71-.4637-1.0555A34.9809,34.9809,0,0,0,57.085,7.3255,33.4879,33.4879,0,0,1,106.97,24.5884c.1776.5031.3354,1.016.4834,1.529a33.2352,33.2352,0,0,1-.01,18.5946c-.148.5229-.3058,1.0358-.4834,1.5488A33.4842,33.4842,0,0,1,91.0189,64.9442Zm56.2673-11.66a33.5249,33.5249,0,0,1-48.9379,8.4934,35.1538,35.1538,0,0,0,7.0137-8.3947,34.49,34.49,0,0,0,2.9988-6.412c.1775-.5129.3452-1.0259.5031-1.5487a34.4051,34.4051,0,0,0,1.2133-5.85l.2171-2.545c.01-.365.0295-.73.0295-1.095l-.01-1.6375c-.0295-.72-.069-1.43-.1381-2.1505l-.3058-2.3872a36.1251,36.1251,0,0,0-1.0061-4.35q-.222-.7842-.5031-1.5388a33.9852,33.9852,0,0,0-3.127-6.6388,34.9263,34.9263,0,0,0-6.8855-8.1876,33.48,33.48,0,0,1,48.9379,44.2424Z"/><path class="cls-1" d="M49.6077,20.5045v.1874a1.1234,1.1234,0,0,1-.2171.4341c-1.598,2.0321-3.1862,4.0543-4.7744,6.0864a.9506.9506,0,0,1-.7891.4241H19.2347c-.2761,0-.4537-.1775-.5228-.5129,0-.01-.01-.02-.02-.04v-.1775a1.3248,1.3248,0,0,1,.1874-.3946c1.5981-2.042,3.206-4.0938,4.804-6.1358a.9807.9807,0,0,1,.7991-.4241H49.0454c.2959,0,.4636.1578.5425.5228C49.5879,20.4847,49.5978,20.4946,49.6077,20.5045Z"/><path class="cls-1" d="M49.6077,38.4382v.1776c-.01.03-.02.0493-.03.0789a.5472.5472,0,0,1-.3846.4636.5851.5851,0,0,1-.1875.01H24.4925a.9868.9868,0,0,1-.8187-.4341c-1.5487-1.9828-3.1073-3.9655-4.6561-5.9483a1.2637,1.2637,0,0,1-.3255-.5721v-.1579c.01-.01.01-.01.01-.02.1183-.4241.2466-.5425.6017-.5425q12.237,0,24.4739-.01a1.0373,1.0373,0,0,1,.8582.4537c1.5586,1.9927,3.1073,3.9656,4.666,5.9484A1.3165,1.3165,0,0,1,49.6077,38.4382Z"/><path class="cls-1" d="M49.6077,43.7256v.1775a1.3092,1.3092,0,0,1-.2269.4538c-1.5882,2.0222-3.1665,4.0346-4.7449,6.0569a1.0225,1.0225,0,0,1-.8483.4438H19.2446a.5521.5521,0,0,1-.5327-.5425.0746.0746,0,0,0-.02-.04v-.1183a1.1127,1.1127,0,0,1,.2367-.4834q2.3824-3.0335,4.7646-6.0864a.9337.9337,0,0,1,.77-.4045H49.0749c.2664,0,.4439.1677.513.5031A.0748.0748,0,0,0,49.6077,43.7256Z"/><path class="cls-1" d="M71.4773,32.8253c-.0394.5326-.0691,1.0654-.1282,1.5882a.3211.3211,0,0,1-.1677.1775v-.0592l-.0691-1.5783c0-.0493-.01-.1085-.01-.1578a.5666.5666,0,0,0,.1283.01,1.74,1.74,0,0,0,.2268.01A.0346.0346,0,0,1,71.4773,32.8253Z"/><path class="cls-1" d="M93.8106,46.1917c-1.529-1.0259-3.058-2.0616-4.6067-3.1073-1.1147,1.4994-2.21,2.9988-3.3244,4.5179-1.1738-.9272-2.3182-1.8249-3.5019-2.7522-1.8545,2.5254-3.6992,5.0408-5.5833,7.5859-1.8644-2.5352-3.7091-5.0507-5.5834-7.5859l-1.7164,1.3614a34.66,34.66,0,0,0,1.5488-7.5464,4.826,4.826,0,0,1,.7891.6905,12.9014,12.9014,0,0,1,2.0617,3.1961A53.2737,53.2737,0,0,1,76.2024,48.5c.1874.5327.3748,1.0555.6215,1.5882.03-.0789.0591-.148.0888-.2269.6609-1.8446,1.312-3.6893,2.0024-5.5241A19.142,19.142,0,0,1,80.78,40.638a9.7182,9.7182,0,0,1,.592-.8286,5.3876,5.3876,0,0,1,2.15-1.677c.9766-.4242,1.9334-.8977,2.9-1.3514.069-.0395.138-.0691.2367-.1184-.1085-.0592-.1973-.0987-.286-.1381-1.3022-.6314-2.6043-1.2725-3.9163-1.894a.3337.3337,0,0,1-.2268-.3157c-.02-.4932-.079-.9765-.1184-1.4895.2959-.02.6116-.02.9174-.0592a5.2755,5.2755,0,0,0,3.1665-1.3317,3.0068,3.0068,0,0,0,.74-3.64c-.1085-.2664-.2762-.513-.4044-.7793a.248.248,0,0,1,.02-.2072c.7-.72,1.4106-1.44,2.111-2.1505a.32.32,0,0,1,.0691-.0394,11.3863,11.3863,0,0,1,1.2035,2.2984,10.6225,10.6225,0,0,1,.651,4.0149c-.01,1.6967-.03,3.3934.0592,5.08A21.0487,21.0487,0,0,0,93.7613,46.024.2278.2278,0,0,1,93.8106,46.1917Z"/><path class="cls-1" d="M68.0444,25.22a31.3629,31.3629,0,0,0-1.2922-3.4032Z"/><path class="cls-1" d="M90.0029,20.0507c-.1282.2664-.2368.513-.365.74a13.05,13.05,0,0,1-2.8311,3.3639A27.6744,27.6744,0,0,1,79.4676,28.87a.6419.6419,0,0,1-.6511-.02,4.1263,4.1263,0,0,0-4.1332.0494.39.39,0,0,1-.4242.02A29.3346,29.3346,0,0,1,70.0963,26.69c-.2664-1.0456-.582-2.0715-.9371-3.0678l-.6116-1.5882c-.148-.3551-.296-.71-.4637-1.0555a14.4875,14.4875,0,0,1,7.8621-2.5845,14.9424,14.9424,0,0,1,10.4465,3.2454.754.754,0,0,0,.74.1677,4.5508,4.5508,0,0,0,1.7756-.8385C89.2828,20.6919,89.6182,20.3762,90.0029,20.0507Z"/><path class="cls-1" d="M76.7925,44.01c.0541-.1266.0837-.1958.1132-.2651.49-1.15.9209-2.32,1.4826-3.4448a7.7652,7.7652,0,0,1,3.65-3.5964.9851.9851,0,0,0,.1119-.0779c-.5559-.2684-1.0847-.5379-1.63-.7821a.7552.7552,0,0,1-.52-.7478,13.1962,13.1962,0,0,0-.0873-1.7446,3.7418,3.7418,0,0,0-1.7773-2.7793,2.4014,2.4014,0,0,0-2.6687-.0041,3.7458,3.7458,0,0,0-1.6839,2.2778,7.3919,7.3919,0,0,0-.1921,2.2847.6958.6958,0,0,1-.4852.7c-.5075.2317-1.0044.48-1.5051.722-.0466.0225-.0882.052-.1458.0865a1.1314,1.1314,0,0,0,.0963.0618,8.0347,8.0347,0,0,1,3.4487,3.21,19.2476,19.2476,0,0,1,1.4,3.0658C76.5244,43.3007,76.647,43.6259,76.7925,44.01Z"/><path class="cls-1" d="M73.2924,30.4973a4.0874,4.0874,0,0,1-1.2331.3945,4.1353,4.1353,0,0,1-1.1542.03c-.069-.5721-.1578-1.1443-.2564-1.7065A25.2111,25.2111,0,0,0,73.2924,30.4973Z"/><path class="cls-1" d="M80.3305,30.4925l-.0063.0728a12.3293,12.3293,0,0,0,1.2349.3217,3.7331,3.7331,0,0,0,2.7944-.5365,1.4728,1.4728,0,0,0,.339-2.1679A27.2265,27.2265,0,0,1,80.3305,30.4925Z"/><path class="cls-1" d="M71.4773,32.8253c-.0394.5326-.0691,1.0654-.1282,1.5882a.3211.3211,0,0,1-.1677.1775v-.0592l-.0691-1.5783c0-.0493-.01-.1085-.01-.1578a.5666.5666,0,0,0,.1283.01,1.74,1.74,0,0,0,.2268.01A.0346.0346,0,0,1,71.4773,32.8253Z"/><path class="cls-1" d="M93.8106,46.1917c-1.529-1.0259-3.058-2.0616-4.6067-3.1073-1.1147,1.4994-2.21,2.9988-3.3244,4.5179-1.1738-.9272-2.3182-1.8249-3.5019-2.7522-1.8545,2.5254-3.6992,5.0408-5.5833,7.5859-1.8644-2.5352-3.7091-5.0507-5.5834-7.5859l-1.7164,1.3614a34.66,34.66,0,0,0,1.5488-7.5464,4.826,4.826,0,0,1,.7891.6905,12.9014,12.9014,0,0,1,2.0617,3.1961A53.2737,53.2737,0,0,1,76.2024,48.5c.1874.5327.3748,1.0555.6215,1.5882.03-.0789.0591-.148.0888-.2269.6609-1.8446,1.312-3.6893,2.0024-5.5241A19.142,19.142,0,0,1,80.78,40.638a9.7182,9.7182,0,0,1,.592-.8286,5.3876,5.3876,0,0,1,2.15-1.677c.9766-.4242,1.9334-.8977,2.9-1.3514.069-.0395.138-.0691.2367-.1184-.1085-.0592-.1973-.0987-.286-.1381-1.3022-.6314-2.6043-1.2725-3.9163-1.894a.3337.3337,0,0,1-.2268-.3157c-.02-.4932-.079-.9765-.1184-1.4895.2959-.02.6116-.02.9174-.0592a5.2755,5.2755,0,0,0,3.1665-1.3317,3.0068,3.0068,0,0,0,.74-3.64c-.1085-.2664-.2762-.513-.4044-.7793a.248.248,0,0,1,.02-.2072c.7-.72,1.4106-1.44,2.111-2.1505a.32.32,0,0,1,.0691-.0394,11.3863,11.3863,0,0,1,1.2035,2.2984,10.6225,10.6225,0,0,1,.651,4.0149c-.01,1.6967-.03,3.3934.0592,5.08A21.0487,21.0487,0,0,0,93.7613,46.024.2278.2278,0,0,1,93.8106,46.1917Z"/><path class="cls-1" d="M68.0444,25.22a31.3629,31.3629,0,0,0-1.2922-3.4032Z"/><path class="cls-1" d="M90.0029,20.0507c-.1282.2664-.2368.513-.365.74a13.05,13.05,0,0,1-2.8311,3.3639A27.6744,27.6744,0,0,1,79.4676,28.87a.6419.6419,0,0,1-.6511-.02,4.1263,4.1263,0,0,0-4.1332.0494.39.39,0,0,1-.4242.02A29.3346,29.3346,0,0,1,70.0963,26.69c-.2664-1.0456-.582-2.0715-.9371-3.0678l-.6116-1.5882c-.148-.3551-.296-.71-.4637-1.0555a14.4875,14.4875,0,0,1,7.8621-2.5845,14.9424,14.9424,0,0,1,10.4465,3.2454.754.754,0,0,0,.74.1677,4.5508,4.5508,0,0,0,1.7756-.8385C89.2828,20.6919,89.6182,20.3762,90.0029,20.0507Z"/><path class="cls-1" d="M76.7925,44.01c-.1455-.3843-.2681-.7095-.3918-1.0343a19.2476,19.2476,0,0,0-1.4-3.0658,8.0347,8.0347,0,0,0-3.4487-3.21,1.1314,1.1314,0,0,1-.0963-.0618c.0576-.0345.0992-.064.1458-.0865.5007-.2421.9976-.49,1.5051-.722a.6958.6958,0,0,0,.4852-.7,7.3919,7.3919,0,0,1,.1921-2.2847,3.7458,3.7458,0,0,1,1.6839-2.2778,2.4014,2.4014,0,0,1,2.6687.0041,3.7418,3.7418,0,0,1,1.7773,2.7793,13.1962,13.1962,0,0,1,.0873,1.7446.7552.7552,0,0,0,.52.7478c.5448.2442,1.0736.5137,1.63.7821a.9851.9851,0,0,1-.1119.0779,7.7652,7.7652,0,0,0-3.65,3.5964c-.5617,1.1246-.9931,2.2949-1.4826,3.4448C76.8762,43.8144,76.8466,43.8836,76.7925,44.01Z"/><path class="cls-1" d="M73.2924,30.4973a4.0874,4.0874,0,0,1-1.2331.3945,4.1353,4.1353,0,0,1-1.1542.03c-.069-.5721-.1578-1.1443-.2564-1.7065A25.2111,25.2111,0,0,0,73.2924,30.4973Z"/><path class="cls-1" d="M80.3305,30.4925a27.2265,27.2265,0,0,0,4.362-2.31,1.4728,1.4728,0,0,1-.339,2.1679,3.7331,3.7331,0,0,1-2.7944.5365,12.3293,12.3293,0,0,1-1.2349-.3217Z"/><path class="cls-1" d="M122.0845,40.44h.0055a.9147.9147,0,0,1-.2712-.4018v-.0024a.3963.3963,0,0,1-.1606-.243h.0028c-.0554-.0674-.1107-.1324-.1633-.2021-.18-.231.0138-.2.1771-.19.0277,0,.0554-.0024.0831-.0024l.1135-.0072c.083-.0145.166-.0265.2491-.0385.0968-.01.1937-.0169.2906-.0265.0332-.0024.0664-.0072.1-.01a.6445.6445,0,0,1,.3432-.07c.0471-.01.0969-.0193.144-.0289a2.7824,2.7824,0,0,1,1.0075-.2286c.3072.053.3847.4524.5535.705.6643.989,1.3175,1.9827,1.9735,2.9764.0415.0626.1107.1179.0692.2334-.9134,0-1.8378-.0024-2.7623,0-.191,0-.2464-.1082-.2851-.2382-.0277-.0409-.0526-.0794-.08-.1179l-.0027-.0048a4.3513,4.3513,0,0,1-.5564-.8445.8423.8423,0,0,1-.2408-.3706c-.0166-.0265-.036-.05-.0526-.077a.7429.7429,0,0,1-.2158-.32.88.88,0,0,1-.2408-.3706C122.1371,40.5218,122.1122,40.4809,122.0845,40.44Z"/><path class="cls-1" d="M125.1928,36.3351c-.0222.0217-.0471.0458-.072.0674a.1541.1541,0,0,1-.1135.0915.1313.1313,0,0,1-.1052.0938,2.6926,2.6926,0,0,1-.8082.5462,5.4509,5.4509,0,0,1-2.4191.6761,4.6757,4.6757,0,0,1-1.1735.0915,6.6859,6.6859,0,0,1-1.0961.0024,4.931,4.931,0,0,1-.8829,0,5.4534,5.4534,0,0,1-.9494-.0024h-.2214a17.2559,17.2559,0,0,1-1.8323-.0049c-.1024.0024-.2076.0073-.31.01a.0422.0422,0,0,1-.0471.0168l-.0111.01c-.0027,1.6194,0,3.2411-.011,4.86,0,.0891.1328.2816-.1467.2744h-.0692l-2.2143.0216c-.0526,0-.0913-.0144-.1052-.0626-.0083-.6905-.0193-1.3787-.0221-2.0692q-.0042-2.5157,0-5.0313c0-.1371-.0637-.296.23-.2935q3.8071.0144,7.6171.0144c.36-.0048.72-.012,1.0767-.0193a5.1753,5.1753,0,0,0,1.4061-.51V35.12a7.0017,7.0017,0,0,0,1.03-1.09c.0415-.1877.08-.3778.119-.5655l.0332-.0577a2.46,2.46,0,0,0-.4622-1.8239,3.1753,3.1753,0,0,0-2.6267-1.2151q-3.9483,0-7.8994.0024c-.1328,0-.2657-.01-.3985-.0168a.05.05,0,0,1-.0526-.0361h-.0166v-.0169c-.0942-.0794-.0471-.1756-.0416-.267-.0027-.58-.0055-1.1574-.0138-1.7349-.0028-.1492.0443-.2238.227-.18h4.47a16.8541,16.8541,0,0,1,2.3638.0433,2.0847,2.0847,0,0,0,.7888-.0433c3.0584-.19,5.5633,1.3715,6.175,3.9051A4.2212,4.2212,0,0,1,125.1928,36.3351Z"/><path class="cls-1" d="M132.8763,27.11c-.0111-.2069.08-.3176.3017-.3609l.0249.0072a.3984.3984,0,0,1,.2768-.1588c.3321-.1757.6643-.3465.9936-.5246a.3223.3223,0,0,1,.3377.0048c.4595.2407.9217.4765,1.3895.7a.3162.3162,0,0,1,.21.33c-.0111.4571-.0138.9119,0,1.3667a.3144.3144,0,0,1-.2214.3248q-.6933.3212-1.3729.6617a.3436.3436,0,0,1-.34.01c-.3294-.1756-.667-.3441-1.002-.5149-.5951-.2166-.5951-.2166-.5951-.7411C132.8818,27.8463,132.8929,27.4781,132.8763,27.11Z"/><path class="cls-1" d="M132.8642,25.131c-.5622.286-1.1048.5524-1.6572.8285-.0986.0494-.1775,0-.2663-.0493-.7694-.3847-1.529-.7792-2.2984-1.164-.9471-.4439-1.8743-.9174-2.7917-1.4106a.9218.9218,0,0,0-.0986-.0493l-.1184-.0592c-1.1246-.4932-2.17-1.095-3.2652-1.6178a9.04,9.04,0,0,1-1.0654-.5524v-.01a.7923.7923,0,0,1-.3649-.1775.1928.1928,0,0,1-.148-.0691c-.3255-.1677-.6708-.3058-.9865-.4833a.6511.6511,0,0,0-.7891-.01.7464.7464,0,0,1-.2565.1085,2.1918,2.1918,0,0,1-.6017.3157c-.6708.3649-1.3416.71-2.0519,1.0258l-.1183.0593a1.2794,1.2794,0,0,1-.1677.0789c-.6412.3649-1.3022.6905-1.9828,1.0062l-.03.01a.7087.7087,0,0,1-.3453.1677c-1.2626.6807-2.545,1.3219-3.857,1.9335v.01a.3893.3893,0,0,1-.2367.1183,4.8754,4.8754,0,0,1-.5031.2663q-.222-.7842-.5031-1.5388c.4044-.2071.8089-.4044,1.2133-.6018.1776-.0789.3453-.1676.513-.2564.0295-.0592.0887-.0592.1381-.0592.0394-.079.1282-.0691.2071-.0888a.2325.2325,0,0,1,.1776-.0987l.03-.01a.3644.3644,0,0,1,.1085-.0493.01.01,0,0,1,.01-.01.8074.8074,0,0,1,.3649-.1874,1.6689,1.6689,0,0,1,.513-.2565c.02-.01.0493-.03.0691-.04a4.2359,4.2359,0,0,1,.7-.3551c.799-.4439,1.6376-.8286,2.4563-1.233a1.9564,1.9564,0,0,1,.2072-.0987c.0493-.02.0888-.04.1282-.0592a.46.46,0,0,1,.2466-.1282v.01a12.1945,12.1945,0,0,1,1.5191-.7694,4.4757,4.4757,0,0,1,.8977-.4439c.4636-.2367.9174-.4735,1.381-.72a.3169.3169,0,0,1,.3355.01c.3156.1677.6214.3255.9371.4833a1.6386,1.6386,0,0,1,.5228.2663.3329.3329,0,0,1,.2269.1283h.02c1.3021.6116,2.5845,1.2528,3.8571,1.9335,1.016.4734,2.0123.9765,2.9988,1.4994l4.6166,2.3083C132.7854,25.052,132.8051,25.0816,132.8642,25.131Z"/><path class="cls-1" d="M136.4353,43.7354a.3335.3335,0,0,1-.2368.3453c-.3749.1776-.74.365-1.1147.5426-.9569.4833-1.9138.9766-2.8706,1.46-.1184.0592-.2565.1085-.3847.1677h-.01a.23.23,0,0,1-.1677.0987c-.6214.3353-1.2528.6609-1.9137.9469a.1193.1193,0,0,1-.1282.0691,1.8032,1.8032,0,0,1-.4538.2367,15.6479,15.6479,0,0,1-1.47.73c-.6412.3552-1.3021.6905-1.9729.9963-.069.03-.1381.0691-.1973.0987-.6018.3354-1.2232.6412-1.8545.9273a.2969.2969,0,0,1-.0789.0394.4084.4084,0,0,1-.0987.0394c-.799.4637-1.6276.8583-2.4661,1.2529l-.02.01a.2392.2392,0,0,1-.1775.0888,6.7984,6.7984,0,0,1-.9668.4834.6952.6952,0,0,1-.868.0394c-.8977-.4833-1.8151-.9371-2.7226-1.4007-1.3219-.6215-2.6141-1.2825-3.8965-1.9532-.3847-.1973-.7793-.3847-1.1739-.582a2.5753,2.5753,0,0,1-.6905-.365.4324.4324,0,0,1-.0691-.0592h-.0295l-.02-.01a4.0051,4.0051,0,0,1-.9568-.434c-.3552-.1775-.71-.3453-1.0654-.5327.1775-.5129.3452-1.0259.5031-1.5487.4932.2564.9766.5129,1.47.76.434.227.8976.3946,1.3021.661a.166.166,0,0,1,.148.069c.03.02.0493.03.0789.0494a10.4571,10.4571,0,0,1,1.6178.8384.125.125,0,0,1,.0592.01c.0493-.03.0887-.01.0986.0394h.01c.9272.4341,1.8446.878,2.7226,1.3712.9963.4735,1.9926.9372,2.9593,1.47a6.9718,6.9718,0,0,0,1.1345-.5129c.3156-.1381.6214-.296.9273-.4439a17.6321,17.6321,0,0,1,1.6769-.8286c.0987-.0494.1874-.0987.2762-.148.03-.0592.0888-.069.1578-.069a.3.3,0,0,1,.2171-.1184.1489.1489,0,0,1,.1381-.0691.3648.3648,0,0,1,.2367-.1183,12.3305,12.3305,0,0,1,1.529-.77,1.6691,1.6691,0,0,1,.513-.2565c.1479-.0789.3058-.1578.4537-.2367.513-.2762,1.0358-.5524,1.5784-.7793a1.1672,1.1672,0,0,1,.4438-.2171c.03-.02.0592-.0295.0888-.0493v-.01c.8188-.4341,1.6474-.8582,2.5056-1.2528.01-.02.03-.02.0494-.02,1.1245-.5722,2.2491-1.1345,3.3835-1.7066,0-1.7658.01-3.5414.01-5.317,0-.1775.01-.3551.01-.5327,0-1.963,0-3.9261-.01-5.8891a.2143.2143,0,0,1,.1381-.2367c.5328-.2763,1.0556-.5525,1.6277-.8386v.5229c0,1.7855.01,3.5709.01,5.3663,0,.3551-.01.71-.01,1.0752,0,1.5093.01,3.0185.01,4.5377C136.4254,42.4234,136.4155,43.0844,136.4353,43.7354Z"/></svg>